# xmcd
#
# Track frame offsets:
#	150
#	18894
#	36037
#	56022
#	66785
#	86174
#	100953
#	126903
#	164931
#	189899
#	211088
#	223295
#	244894
#	261720
#
# Disc length: 3729 seconds
#
# Revision: 1
# Processed by: cddbd v1.5.1PL2 Copyright (c) Steve Scherf et al.
# Submitted via: audiograbber 1.83.01
#
DISCID=d60e8f0e
DTITLE=Charlie Musselwhite - Deluxe Edition
DYEAR=2005
DGENRE=Blues
TTITLE0=River Hip Mama
TTITLE1=Mean Ole Frisco
TTITLE2=Blues Got Me Again
TTITLE3=Bedside Of A Neighbor
TTITLE4=When It Rains It Pours
TTITLE5=Lotsa Poppa
TTITLE6=Movin' And Groovin'
TTITLE7=38 Special
TTITLE8=Mama Long Legs
TTITLE9=The Blues Overtook Me
TTITLE10=My Road Lies In Darkness
TTITLE11=If I Should Have Bad Luck
TTITLE12=Make My Getaway
TTITLE13=Newport News Blues
EXTD=
EXTT0=
EXTT1=
EXTT2=
EXTT3=
EXTT4=
EXTT5=
EXTT6=
EXTT7=
EXTT8=
EXTT9=
EXTT10=
EXTT11=
EXTT12=
EXTT13=
PLAYORDER=
